<?xml version="1.0" encoding="UTF-8"?>
<svg version="1.1" xmlns="http://www.w3.org/2000/svg" viewBox="0 0 20 20">
<path d="M3,6 C3,4.895 3.895,4 5,4 L9,4 C10.105,4 11,4.895 11,6 C11,7.105 10.105,8 9,8 L5,8 C3.895,8 3,7.105 3,6 z M9,6 C9,5.448 8.552,5 8,5 L6,5 C5.448,5 5,5.448 5,6 C5,6.552 5.448,7 6,7 L8,7 C8.552,7 9,6.552 9,6 z M9,12 C10.105,12 11,12.895 11,14 C11,15.105 10.105,16 9,16 L5,16 C3.895,16 3,15.105 3,14 C3,12.895 3.895,12 5,12 L9,12 z M8,13 L6,13 C5.448,13 5,13.448 5,14 C5,14.552 5.448,15 6,15 L8,15 C8.552,15 9,14.552 9,14 C9,13.448 8.552,13 8,13 z" fill="currentColor"/>
<path d="M10,10 L14.2,10 L13,8.8 L14.4,7.4 L18,11 L14.4,14.6 L13,13.2 L14.2,12 L10,12 z" fill="inherit"/>
</svg>
