<?xml version="1.0" encoding="UTF-8"?>
<svg xmlns="http://www.w3.org/2000/svg" version="1.1" viewBox="0 0 20 20">
<path d="M10,2 C7.239,2 5,4.239 5,7 C5,10.5 10,18 10,18 C10,18 15,10.5 15,7 C15,4.239 12.761,2 10,2 z M10,9 C8.895,9 8,8.105 8,7 C8,5.895 8.895,5 10,5 C11.105,5 12,5.895 12,7 C12,8.105 11.105,9 10,9 z" fill="currentColor"/>
<path d="M2,15 C2,13.895 2.895,13 4,13 L8,13 C9.105,13 10,13.895 10,15 C10,16.105 9.105,17 8,17 L4,17 C2.895,17 2,16.105 2,15 z M11,15 L16,15 L14.6,13.6 L16,12.2 L20,16 L16,19.8 L14.6,18.4 L16,17 L11,17 z" fill="inherit"/>
</svg>
